<svg width="1024" height="1024" viewBox="0 0 1024 1024" fill="none" xmlns="http://www.w3.org/2000/svg">
<rect width="1024" height="1024" rx="224" fill="url(#paint0_linear_0_1)"/>
<g filter="url(#filter0_di_0_1)">
<path fill-rule="evenodd" clip-rule="evenodd" d="M445.125 217.75C439.337 217.75 433.705 219.627 429.075 223.1C424.445 226.573 421.066 231.454 419.445 237.01L325.82 558.01C324.657 561.997 324.439 566.199 325.181 570.285C325.924 574.371 327.608 578.228 330.1 581.55C332.592 584.872 335.823 587.569 339.537 589.426C343.251 591.283 347.347 592.25 351.5 592.25H454.942L431.937 776.183C431.179 782.168 432.467 788.234 435.592 793.395C438.716 798.557 443.493 802.51 449.148 804.614C454.802 806.718 461.002 806.848 466.74 804.984C472.478 803.12 477.417 799.371 480.756 794.346L694.756 473.346C697.444 469.318 698.988 464.635 699.223 459.798C699.457 454.961 698.375 450.15 696.09 445.88C693.805 441.61 690.404 438.04 686.25 435.552C682.095 433.063 677.343 431.749 672.5 431.75H577.35L644.038 253.889C645.555 249.843 646.069 245.49 645.536 241.201C645.003 236.913 643.439 232.818 640.978 229.266C638.517 225.714 635.233 222.811 631.405 220.806C627.578 218.8 623.321 217.752 619 217.75H445.125Z" fill="url(#paint1_linear_0_1)"/>
</g>
<defs>
<filter id="filter0_di_0_1" x="191" y="191" width="648" height="648" filterUnits="userSpaceOnUse" color-interpolation-filters="sRGB">
<feFlood flood-opacity="0" result="BackgroundImageFix"/>
<feColorMatrix in="SourceAlpha" type="matrix" values="0 0 0 0 0 0 0 0 0 0 0 0 0 0 0 0 0 0 127 0" result="hardAlpha"/>
<feOffset dx="6" dy="6"/>
<feComposite in2="hardAlpha" operator="out"/>
<feColorMatrix type="matrix" values="0 0 0 0 0 0 0 0 0 0 0 0 0 0 0 0 0 0 0.25 0"/>
<feBlend mode="normal" in2="BackgroundImageFix" result="effect1_dropShadow_0_1"/>
<feBlend mode="normal" in="SourceGraphic" in2="effect1_dropShadow_0_1" result="shape"/>
<feColorMatrix in="SourceAlpha" type="matrix" values="0 0 0 0 0 0 0 0 0 0 0 0 0 0 0 0 0 0 127 0" result="hardAlpha"/>
<feOffset dx="6" dy="6"/>
<feGaussianBlur stdDeviation="2.5"/>
<feComposite in2="hardAlpha" operator="arithmetic" k2="-1" k3="1"/>
<feColorMatrix type="matrix" values="0 0 0 0 0 0 0 0 0 0 0 0 0 0 0 0 0 0 0.25 0"/>
<feBlend mode="normal" in2="shape" result="effect2_innerShadow_0_1"/>
</filter>
<linearGradient id="paint0_linear_0_1" x1="246" y1="4.64544e-06" x2="726" y2="1024" gradientUnits="userSpaceOnUse">
<stop stop-color="#7AFDD6"/>
<stop offset="0.25" stop-color="#77FF94"/>
<stop offset="0.4998" stop-color="#4DE45C"/>
<stop offset="0.752952" stop-color="#2CB252"/>
<stop offset="1" stop-color="#47815A"/>
</linearGradient>
<linearGradient id="paint1_linear_0_1" x1="512.002" y1="217.75" x2="512.002" y2="806.293" gradientUnits="userSpaceOnUse">
<stop stop-color="#DDFF00"/>
<stop offset="1" stop-color="#7EFF80"/>
</linearGradient>
</defs>
</svg>
